<svg width="19" height="21" viewBox="0 0 19 21" fill="none" xmlns="http://www.w3.org/2000/svg">
<path d="M17.5 7.00001L11.5 1.74001C10.95 1.24805 10.2379 0.976074 9.5 0.976074C8.76207 0.976074 8.05002 1.24805 7.5 1.74001L1.5 7.00001C1.18237 7.28408 0.928899 7.63256 0.756471 8.02225C0.584043 8.41194 0.496612 8.83389 0.499999 9.26001V18C0.499999 18.7957 0.81607 19.5587 1.37868 20.1213C1.94129 20.6839 2.70435 21 3.5 21H15.5C16.2956 21 17.0587 20.6839 17.6213 20.1213C18.1839 19.5587 18.5 18.7957 18.5 18V9.25001C18.502 8.82557 18.4138 8.40555 18.2415 8.01769C18.0691 7.62983 17.8164 7.28296 17.5 7.00001ZM11.5 19H7.5V14C7.5 13.7348 7.60536 13.4804 7.79289 13.2929C7.98043 13.1054 8.23478 13 8.5 13H10.5C10.7652 13 11.0196 13.1054 11.2071 13.2929C11.3946 13.4804 11.5 13.7348 11.5 14V19ZM16.5 18C16.5 18.2652 16.3946 18.5196 16.2071 18.7071C16.0196 18.8946 15.7652 19 15.5 19H13.5V14C13.5 13.2044 13.1839 12.4413 12.6213 11.8787C12.0587 11.3161 11.2956 11 10.5 11H8.5C7.70435 11 6.94129 11.3161 6.37868 11.8787C5.81607 12.4413 5.5 13.2044 5.5 14V19H3.5C3.23478 19 2.98043 18.8946 2.79289 18.7071C2.60536 18.5196 2.5 18.2652 2.5 18V9.25001C2.50018 9.10802 2.53059 8.9677 2.58922 8.83839C2.64784 8.70907 2.73333 8.59372 2.84 8.50001L8.84 3.25001C9.02249 3.08969 9.25709 3.00127 9.5 3.00127C9.74291 3.00127 9.97751 3.08969 10.16 3.25001L16.16 8.50001C16.2667 8.59372 16.3522 8.70907 16.4108 8.83839C16.4694 8.9677 16.4998 9.10802 16.5 9.25001V18Z" fill="#868687"/>
</svg>
