<svg width="21" height="20" viewBox="0 0 21 20" fill="none" xmlns="http://www.w3.org/2000/svg">
<path d="M20.5 5.82001C20.5048 5.75677 20.5048 5.69325 20.5 5.63001L18.5 0.630012C18.4219 0.432368 18.2828 0.264749 18.103 0.151468C17.9232 0.0381872 17.712 -0.0148633 17.5 1.1991e-05H3.5C3.29972 -0.000181891 3.104 0.0597667 2.93818 0.172093C2.77237 0.284419 2.6441 0.443947 2.57 0.630012L0.57 5.63001C0.56518 5.69325 0.56518 5.75677 0.57 5.82001C0.536771 5.87568 0.51311 5.93652 0.5 6.00001C0.511131 6.69125 0.701226 7.36781 1.05174 7.96369C1.40226 8.55957 1.90124 9.05444 2.5 9.40001V19C2.5 19.2652 2.60536 19.5196 2.79289 19.7071C2.98043 19.8947 3.23478 20 3.5 20H17.5C17.7652 20 18.0196 19.8947 18.2071 19.7071C18.3946 19.5196 18.5 19.2652 18.5 19V9.44001C19.1046 9.09099 19.6072 8.58984 19.9581 7.98635C20.309 7.38287 20.4958 6.69807 20.5 6.00001C20.5094 5.94038 20.5094 5.87965 20.5 5.82001ZM11.5 18H9.5V14H11.5V18ZM16.5 18H13.5V13C13.5 12.7348 13.3946 12.4804 13.2071 12.2929C13.0196 12.1054 12.7652 12 12.5 12H8.5C8.23478 12 7.98043 12.1054 7.79289 12.2929C7.60536 12.4804 7.5 12.7348 7.5 13V18H4.5V10C5.06947 9.9968 5.63169 9.87203 6.14905 9.63404C6.66642 9.39605 7.127 9.05033 7.5 8.62001C7.87537 9.04564 8.33701 9.38652 8.85425 9.62001C9.37149 9.8535 9.9325 9.97426 10.5 9.97426C11.0675 9.97426 11.6285 9.8535 12.1458 9.62001C12.663 9.38652 13.1246 9.04564 13.5 8.62001C13.873 9.05033 14.3336 9.39605 14.8509 9.63404C15.3683 9.87203 15.9305 9.9968 16.5 10V18ZM16.5 8.00001C15.9696 8.00001 15.4609 7.7893 15.0858 7.41423C14.7107 7.03915 14.5 6.53045 14.5 6.00001C14.5 5.7348 14.3946 5.48044 14.2071 5.29291C14.0196 5.10537 13.7652 5.00001 13.5 5.00001C13.2348 5.00001 12.9804 5.10537 12.7929 5.29291C12.6054 5.48044 12.5 5.7348 12.5 6.00001C12.5 6.53045 12.2893 7.03915 11.9142 7.41423C11.5391 7.7893 11.0304 8.00001 10.5 8.00001C9.96957 8.00001 9.46086 7.7893 9.08579 7.41423C8.71071 7.03915 8.5 6.53045 8.5 6.00001C8.5 5.7348 8.39464 5.48044 8.20711 5.29291C8.01957 5.10537 7.76522 5.00001 7.5 5.00001C7.23478 5.00001 6.98043 5.10537 6.79289 5.29291C6.60536 5.48044 6.5 5.7348 6.5 6.00001C6.50985 6.26266 6.46787 6.52467 6.37646 6.77109C6.28505 7.01751 6.146 7.24351 5.96725 7.43619C5.78849 7.62887 5.57354 7.78446 5.33466 7.89407C5.09578 8.00368 4.83764 8.06516 4.575 8.07501C4.04457 8.0949 3.52796 7.90327 3.13882 7.54226C2.94614 7.36351 2.79055 7.14855 2.68094 6.90967C2.57133 6.67079 2.50985 6.41266 2.5 6.15001L4.18 2.00001H16.82L18.5 6.15001C18.4621 6.65403 18.2348 7.125 17.8637 7.46822C17.4927 7.81143 17.0054 8.00144 16.5 8.00001Z" fill="#614FE0"/>
</svg>
