<svg width="21" height="20" viewBox="0 0 21 20" fill="none" xmlns="http://www.w3.org/2000/svg">
<path d="M14.21 10.7101C15.1904 9.93878 15.906 8.88105 16.2572 7.68407C16.6085 6.48709 16.5779 5.21039 16.1698 4.03159C15.7617 2.85279 14.9963 1.83052 13.9801 1.10698C12.9639 0.383444 11.7474 -0.00537109 10.5 -0.00537109C9.25255 -0.00537109 8.03611 0.383444 7.01993 1.10698C6.00374 1.83052 5.23834 2.85279 4.83021 4.03159C4.42208 5.21039 4.39151 6.48709 4.74276 7.68407C5.09401 8.88105 5.8096 9.93878 6.79 10.7101C5.11007 11.3832 3.64428 12.4995 2.54889 13.94C1.45349 15.3806 0.76956 17.0914 0.569997 18.8901C0.555551 19.0214 0.567113 19.1543 0.604022 19.2812C0.640931 19.408 0.702464 19.5264 0.785108 19.6294C0.952016 19.8376 1.19478 19.971 1.46 20.0001C1.72521 20.0293 1.99116 19.9519 2.19932 19.785C2.40749 19.6181 2.54082 19.3753 2.57 19.1101C2.78958 17.1553 3.72168 15.3499 5.18822 14.0389C6.65475 12.7279 8.5529 12.0032 10.52 12.0032C12.4871 12.0032 14.3852 12.7279 15.8518 14.0389C17.3183 15.3499 18.2504 17.1553 18.47 19.1101C18.4972 19.3558 18.6144 19.5828 18.7991 19.7471C18.9838 19.9115 19.2228 20.0016 19.47 20.0001H19.58C19.8421 19.97 20.0817 19.8374 20.2466 19.6314C20.4114 19.4253 20.4881 19.1625 20.46 18.9001C20.2595 17.0963 19.5719 15.3811 18.4708 13.9383C17.3698 12.4955 15.8969 11.3796 14.21 10.7101ZM10.5 10.0001C9.70887 10.0001 8.93551 9.76553 8.27772 9.326C7.61992 8.88648 7.10723 8.26176 6.80448 7.53086C6.50173 6.79995 6.42251 5.99569 6.57686 5.21976C6.7312 4.44384 7.11216 3.73111 7.67157 3.1717C8.23098 2.61229 8.94371 2.23132 9.71964 2.07698C10.4956 1.92264 11.2998 2.00186 12.0307 2.30461C12.7616 2.60736 13.3863 3.12005 13.8259 3.77784C14.2654 4.43564 14.5 5.209 14.5 6.00012C14.5 7.06099 14.0786 8.07841 13.3284 8.82855C12.5783 9.5787 11.5609 10.0001 10.5 10.0001Z" fill="#868687"/>
</svg>
